Coordinates
version=1
nRows=38
nColumns=12
inDegrees=yes

Units are S.I. units (second, meters, Newtons, ...)
Angles are in degrees

endheader
time	SC_y	SC_z	SC_x	AC_y	AC_z	AC_x	GH_y	GH_z	GH_yy	EL_x	PS_y
       0.0              -21.16        -0.5938          25.14          42.23         -6.866          19.86         -43.83          -1.05          -33.8          26.97          159.2
    0.0244              -21.15        -0.5934          25.15          42.23         -6.866          19.86         -43.84         -1.043         -33.77          26.99          159.2
   0.04879              -21.15         -0.593          25.16          42.23         -6.867          19.86         -43.86         -1.036         -33.74           27.0          159.2
   0.07319              -21.15        -0.5925          25.17          42.24         -6.868          19.86         -43.88         -1.029         -33.71          27.01          159.2
   0.09758              -21.15         -0.592          25.18          42.24         -6.869          19.86          -43.9         -1.021         -33.67          27.02          159.2
     0.122              -21.15        -0.5914          25.19          42.24          -6.87          19.86         -43.92         -1.012         -33.63          27.04          159.2
    0.1464              -21.15        -0.5908           25.2          42.24         -6.872          19.86         -43.94         -1.003          -33.6          27.06          159.2
    0.1708              -21.15        -0.5902          25.21          42.25         -6.873          19.86         -43.96        -0.9937         -33.55          27.07          159.2
    0.1952              -21.15        -0.5895          25.22          42.25         -6.874          19.86         -43.99        -0.9834         -33.51          27.09          159.1
    0.2196              -21.14        -0.5888          25.24          42.25         -6.876          19.86         -44.01        -0.9724         -33.46          27.11          159.1
     0.244              -21.14         -0.588          25.25          42.26         -6.877          19.85         -44.04        -0.9605         -33.41          27.13          159.1
    0.2683              -21.14        -0.5872          25.27          42.26         -6.879          19.85         -44.07        -0.9478         -33.35          27.15          159.1
    0.2927              -21.14        -0.5863          25.29          42.27         -6.881          19.85          -44.1         -0.934         -33.29          27.18          159.1
    0.3171              -21.14        -0.5853          25.31          42.27         -6.883          19.85         -44.14        -0.9192         -33.22           27.2          159.1
    0.3415              -21.13        -0.5843          25.33          42.28         -6.885          19.85         -44.18        -0.9031         -33.15          27.23          159.0
    0.3659              -21.13        -0.5831          25.35          42.28         -6.887          19.85         -44.22        -0.8857         -33.08          27.26          159.0
    0.3903              -21.13        -0.5819          25.37          42.29          -6.89          19.85         -44.27        -0.8668         -32.99           27.3          159.0
    0.4147              -21.13        -0.5805           25.4           42.3         -6.893          19.85         -44.32        -0.8461          -32.9          27.33          159.0
    0.4391              -21.12        -0.5791          25.43           42.3         -6.896          19.84         -44.37        -0.8236          -32.8          27.37          158.9
    0.4635              -21.12        -0.5774          25.46          42.31         -6.899          19.84         -44.43        -0.7989         -32.69          27.42          158.9
    0.4879              -21.12        -0.5757           25.5          42.32         -6.902          19.84          -44.5        -0.7718         -32.57          27.46          158.9
    0.5123              -21.11        -0.5737          25.54          42.33         -6.906          19.84         -44.57         -0.742         -32.44          27.52          158.8
    0.5367              -21.11        -0.5716          25.58          42.34         -6.911          19.83         -44.65        -0.7091         -32.29          27.57          158.8
    0.5611               -21.1        -0.5692          25.63          42.36         -6.916          19.83         -44.73        -0.6726         -32.13          27.64          158.7
    0.5855               -21.1        -0.5665          25.68          42.37         -6.921          19.83         -44.83        -0.6321         -31.95          27.71          158.7
    0.6099              -21.09        -0.5636          25.74          42.38         -6.927          19.82         -44.94        -0.5868         -31.75          27.79          158.6
    0.6343              -21.08        -0.5602           25.8           42.4         -6.934          19.82         -45.06        -0.5361         -31.53          27.88          158.6
    0.6587              -21.07        -0.5565          25.88          42.42         -6.941          19.82          -45.2        -0.4791         -31.28          27.98          158.5
    0.6831              -21.07        -0.5523          25.96          42.44          -6.95          19.81         -45.36        -0.4146         -30.99          28.09          158.4
    0.7075              -21.06        -0.5475          26.05          42.47          -6.96          19.81         -45.53        -0.3415         -30.67          28.22          158.3
    0.7319              -21.04         -0.542          26.16          42.49         -6.971           19.8         -45.73         -0.258          -30.3          28.37          158.2
    0.7563              -21.03        -0.5358          26.28          42.53         -6.983          19.79         -45.96        -0.1621         -29.88          28.54          158.1
    0.7807              -21.01        -0.5285          26.43          42.56         -6.998          19.78         -46.23       -0.05149         -29.39          28.73          157.9
     0.805               -21.0        -0.5201          26.59          42.61         -7.015          19.77         -46.54        0.07708         -28.82          28.96          157.8
    0.8294              -20.97        -0.5102          26.79          42.66         -7.035          19.76          -46.9         0.2275         -28.15          29.23          157.6
    0.8538              -20.95        -0.4986          27.02          42.72         -7.059          19.75         -47.33         0.4048         -27.37          29.54          157.3
    0.8782              -20.92        -0.4848          27.29          42.79         -7.087          19.73         -47.84         0.6156         -26.44          29.91          157.1
    0.9026              -20.88        -0.4683          27.61          42.87          -7.12          19.71         -48.45         0.8682         -25.32          30.36          156.7
